# xmcd CD database file
#
# Track frame offsets:
#	183
#	20998
#	40265
#	61373
#	79095
#	99025
#	118013
#	139655
#	158145
#	176918
#
# Disc length: 2438 seconds
#
# Revision: 1
# Processed by: cddbd v1.4PL0 Copyright (c) Steve Scherf et al.
# Submitted via: CDex 1.40Beta5
#
DISCID=8109840a
DTITLE=Pino Daniele - Ferry-Boat
DYEAR=1985
DGENRE=Blues
TTITLE0=Ferry-Boat
TTITLE1=Bona Jurnata
TTITLE2=Sarà
TTITLE3='A rrobba mia
TTITLE4=Che ore so'
TTITLE5=One
TTITLE6=Amico mio
TTITLE7=Dance of baia
TTITLE8='O tiempo vola
TTITLE9=Quaccosa
EXTD=YEAR: 1985 ID3G:   0
EXTT0=
EXTT1=
EXTT2=
EXTT3=
EXTT4=
EXTT5=
EXTT6=
EXTT7=
EXTT8=
EXTT9=
PLAYORDER=
